<?xml version="1.0" encoding="utf-8"?>
<!-- Generator: Adobe Illustrator 24.1.2, SVG Export Plug-In . SVG Version: 6.00 Build 0)  -->
<svg version="1.1" xmlns="http://www.w3.org/2000/svg" xmlns:xlink="http://www.w3.org/1999/xlink" x="0px" y="0px"
	 viewBox="0 0 1080 1080" style="enable-background:new 0 0 1080 1080;" xml:space="preserve">
<style type="text/css">
	.st0{fill:#1D1D1B;}
</style>
<g id="Type">
</g>
<g id="Sign">
</g>
<g id="Circle">
	<g>
		<path class="st0" d="M255.09,599.47l-20.74-35.49c-0.92,0.12-2.34,0.17-4.29,0.17h-27.09v35.32H180v-120h50.06
			c15.54,0,27.54,3.6,36,10.8c8.46,7.2,12.69,17.37,12.69,30.51c0,9.37-2.03,17.37-6.09,24c-4.06,6.63-9.97,11.6-17.74,14.91
			l26.4,39.77H255.09z M202.97,543.92h27.09c8.68,0,15.31-1.89,19.89-5.66c4.57-3.77,6.86-9.37,6.86-16.8
			c0-7.31-2.29-12.8-6.86-16.46c-4.57-3.66-11.2-5.49-19.89-5.49h-27.09V543.92z"/>
		<path class="st0" d="M338.23,479.47h87.94v20.06H361.2v29.66h58.29v20.06H361.2v30.17h67.03v20.06h-90V479.47z"/>
		<path class="st0" d="M668.23,572.38c5.37,5.37,12.57,8.06,21.6,8.06c9.03,0,16.14-2.68,21.34-8.06c5.2-5.37,7.8-12.8,7.8-22.28
			v-70.63h22.97v70.63c0,10.4-2.11,19.46-6.34,27.17c-4.23,7.71-10.26,13.63-18.08,17.74c-7.83,4.11-17.06,6.17-27.69,6.17
			c-10.74,0-20.09-2.06-28.03-6.17c-7.94-4.11-14.03-10.03-18.26-17.74c-4.23-7.72-6.34-16.77-6.34-27.17v-70.63h22.97v70.63
			C660.17,559.58,662.86,567.01,668.23,572.38z"/>
		<path class="st0" d="M887.57,490.27c8.28,7.2,12.43,17.37,12.43,30.51c0,13.71-4.14,24.37-12.43,31.97
			c-8.29,7.6-19.97,11.4-35.06,11.4h-26.23v35.32h-22.97v-120h49.2C867.6,479.47,879.28,483.07,887.57,490.27z M871.29,538.27
			c4.63-3.77,6.94-9.37,6.94-16.8c0-7.31-2.31-12.8-6.94-16.46c-4.63-3.66-11.29-5.49-19.97-5.49h-25.03v44.4h25.03
			C860,543.92,866.66,542.04,871.29,538.27z"/>
		<path class="st0" d="M557.75,502.61c-5.77-2.74-11.63-4.11-17.58-4.11c-7.43,0-14.23,1.77-20.4,5.31
			c-6.17,3.54-11.03,8.43-14.57,14.66c-3.54,6.23-5.31,13.06-5.31,20.49c0,7.43,1.77,14.26,5.31,20.48
			c3.54,6.23,8.4,11.14,14.57,14.74c6.17,3.6,12.97,5.4,20.4,5.4c5.72,0,11.46-1.26,17.23-3.77c5.77-2.51,10.89-6,15.34-10.46
			l13.54,15.09c-6.28,6.4-13.6,11.46-21.94,15.17c-8.34,3.72-16.8,5.57-25.37,5.57c-11.54,0-22.11-2.75-31.71-8.23
			c-9.6-5.49-17.14-12.94-22.63-22.37c-5.49-9.43-8.23-19.86-8.23-31.29c0-11.43,2.8-21.83,8.4-31.2
			c5.6-9.37,13.23-16.74,22.89-22.11c9.66-5.37,20.37-8.06,32.14-8.06c8.57,0,16.97,1.71,25.2,5.14
			c8.23,3.43,15.26,8.17,21.09,14.23l-13.37,16.8C568.51,509.18,563.51,505.35,557.75,502.61z"/>
		<g>
			<rect x="425.48" y="360" class="st0" width="226.5" height="19.68"/>
		</g>
		<g>
			<rect x="474.68" y="700.32" class="st0" width="128.1" height="19.68"/>
		</g>
		<path class="st0" d="M557.75,502.61c-5.77-2.74-11.63-4.11-17.58-4.11c-7.43,0-14.23,1.77-20.4,5.31
			c-6.17,3.54-11.03,8.43-14.57,14.66c-3.54,6.23-5.31,13.06-5.31,20.49c0,7.43,1.77,14.26,5.31,20.48
			c3.54,6.23,8.4,11.14,14.57,14.74c6.17,3.6,12.97,5.4,20.4,5.4c5.72,0,11.46-1.26,17.23-3.77c5.77-2.51,10.89-6,15.34-10.46
			l13.54,15.09c-6.28,6.4-13.6,11.46-21.94,15.17c-8.34,3.72-16.8,5.57-25.37,5.57c-11.54,0-22.11-2.75-31.71-8.23
			c-9.6-5.49-17.14-12.94-22.63-22.37c-5.49-9.43-8.23-19.86-8.23-31.29c0-11.43,2.8-21.83,8.4-31.2
			c5.6-9.37,13.23-16.74,22.89-22.11c9.66-5.37,20.37-8.06,32.14-8.06c8.57,0,16.97,1.71,25.2,5.14
			c8.23,3.43,15.26,8.17,21.09,14.23l-13.37,16.8C568.51,509.18,563.51,505.35,557.75,502.61z"/>
		<path class="st0" d="M540,1080C242.24,1080,0,837.76,0,540S242.24,0,540,0s540,242.24,540,540S837.76,1080,540,1080z M540,19.63
			c-286.95,0-520.4,233.45-520.4,520.4s233.45,520.4,520.4,520.4s520.4-233.45,520.4-520.4S826.95,19.63,540,19.63z"/>
	</g>
</g>
</svg>
