<?xml version="1.0" encoding="utf-8"?>
<!-- Generator: Adobe Illustrator 24.3.0, SVG Export Plug-In . SVG Version: 6.00 Build 0)  -->
<svg version="1.1" id="Ebene_1" xmlns="http://www.w3.org/2000/svg" xmlns:xlink="http://www.w3.org/1999/xlink" x="0px" y="0px"
	 viewBox="0 0 1080 1080" style="enable-background:new 0 0 1080 1080;" xml:space="preserve">
<g id="Type">
</g>
<g id="Sign">
</g>
<g id="Circle">
	<g>
		<path d="M255.1,599.5L234.3,564c-0.9,0.1-2.3,0.2-4.3,0.2H203v35.3h-23v-120h50.1c15.5,0,27.5,3.6,36,10.8
			c8.5,7.2,12.7,17.4,12.7,30.5c0,9.4-2,17.4-6.1,24s-10,11.6-17.7,14.9l26.4,39.8L255.1,599.5L255.1,599.5z M203,543.9h27.1
			c8.7,0,15.3-1.9,19.9-5.7c4.6-3.8,6.9-9.4,6.9-16.8c0-7.3-2.3-12.8-6.9-16.5s-11.2-5.5-19.9-5.5H203V543.9z"/>
		<path d="M338.2,479.5h87.9v20.1h-65v29.7h58.3v20.1h-58.3v30.2h67v20.1h-90V479.5z"/>
		<path d="M668.2,572.4c5.4,5.4,12.6,8.1,21.6,8.1c9,0,16.1-2.7,21.3-8.1c5.2-5.4,7.8-12.8,7.8-22.3v-70.6h23v70.6
			c0,10.4-2.1,19.5-6.3,27.2c-4.2,7.7-10.3,13.6-18.1,17.7c-7.8,4.1-17.1,6.2-27.7,6.2c-10.7,0-20.1-2.1-28-6.2s-14-10-18.3-17.7
			c-4.2-7.7-6.3-16.8-6.3-27.2v-70.6h23v70.6C660.2,559.6,662.9,567,668.2,572.4z"/>
		<path d="M887.6,490.3c8.3,7.2,12.4,17.4,12.4,30.5c0,13.7-4.1,24.4-12.4,32s-20,11.4-35.1,11.4h-26.2v35.3h-23v-120h49.2
			C867.6,479.5,879.3,483.1,887.6,490.3z M871.3,538.3c4.6-3.8,6.9-9.4,6.9-16.8c0-7.3-2.3-12.8-6.9-16.5s-11.3-5.5-20-5.5h-25v44.4
			h25C860,543.9,866.7,542,871.3,538.3z"/>
		<path d="M557.8,502.6c-5.8-2.7-11.6-4.1-17.6-4.1c-7.4,0-14.2,1.8-20.4,5.3c-6.2,3.5-11,8.4-14.6,14.7s-5.3,13.1-5.3,20.5
			s1.8,14.3,5.3,20.5c3.5,6.2,8.4,11.1,14.6,14.7s13,5.4,20.4,5.4c5.7,0,11.5-1.3,17.2-3.8c5.8-2.5,10.9-6,15.3-10.5l13.5,15.1
			c-6.3,6.4-13.6,11.5-21.9,15.2c-8.3,3.7-16.8,5.6-25.4,5.6c-11.5,0-22.1-2.8-31.7-8.2c-9.6-5.5-17.1-12.9-22.6-22.4
			c-5.5-9.4-8.2-19.9-8.2-31.3s2.8-21.8,8.4-31.2s13.2-16.7,22.9-22.1s20.4-8.1,32.1-8.1c8.6,0,17,1.7,25.2,5.1
			c8.2,3.4,15.3,8.2,21.1,14.2l-13.4,16.8C568.5,509.2,563.5,505.4,557.8,502.6z"/>
		<g>
			<rect x="425.5" y="360" width="226.5" height="19.7"/>
		</g>
		<g>
			<rect x="474.7" y="700.3" width="128.1" height="19.7"/>
		</g>
		<path d="M557.8,502.6c-5.8-2.7-11.6-4.1-17.6-4.1c-7.4,0-14.2,1.8-20.4,5.3c-6.2,3.5-11,8.4-14.6,14.7s-5.3,13.1-5.3,20.5
			s1.8,14.3,5.3,20.5c3.5,6.2,8.4,11.1,14.6,14.7s13,5.4,20.4,5.4c5.7,0,11.5-1.3,17.2-3.8c5.8-2.5,10.9-6,15.3-10.5l13.5,15.1
			c-6.3,6.4-13.6,11.5-21.9,15.2c-8.3,3.7-16.8,5.6-25.4,5.6c-11.5,0-22.1-2.8-31.7-8.2c-9.6-5.5-17.1-12.9-22.6-22.4
			c-5.5-9.4-8.2-19.9-8.2-31.3s2.8-21.8,8.4-31.2s13.2-16.7,22.9-22.1s20.4-8.1,32.1-8.1c8.6,0,17,1.7,25.2,5.1
			c8.2,3.4,15.3,8.2,21.1,14.2l-13.4,16.8C568.5,509.2,563.5,505.4,557.8,502.6z"/>
		<path d="M540,1080C242.2,1080,0,837.8,0,540S242.2,0,540,0s540,242.2,540,540S837.8,1080,540,1080z M540,19.6
			C253,19.6,19.6,253.1,19.6,540S253,1060.4,540,1060.4S1060.4,827,1060.4,540S827,19.6,540,19.6z"/>
	</g>
</g>
</svg>
